<svg height="48px" viewBox="-102 0 512 512" width="48px" xmlns="http://www.w3.org/2000/svg"><path d="m291.398438 140.8125-283.195313 164.496094-1.257813 24.445312 285.773438-163.277344zm0 0"/><path d="m42.441406 403.324219h262.445313l-1.507813-29.390625h-209.320312zm0 0"/><path d="m12.140625 228.644531-2.101563 40.902344 70.417969-40.902344zm0 0"/><path d="m294.441406 200.039062-289.324218 165.3125-1.308594 25.445313 291.894531-166.199219zm0 0"/><path d="m146.746094 343.933594h155.089844l-1.40625-27.394532h-105.574219zm0 0"/><path d="m179.261719 171.253906h-164.171875l-1.40625 27.390625h118.417968zm0 0"/><path d="m0 464.933594h54.277344v47.066406h199.496094v-47.066406h54.28125l-1.625-31.609375h-304.804688zm0 0"/><path d="m247.542969 286.539062h51.34375l-1.460938-28.402343zm0 0"/><path d="m286.757812 50.472656h-32.984374v-50.472656h-199.496094v50.472656h-32.980469l-1.613281 31.390625h268.683594zm0 0"/><path d="m281.507812 111.863281h-263.363281l-1.511719 29.390625h214.273438zm0 0"/></svg>